<svg xmlns="http://www.w3.org/2000/svg" viewBox="0 0 64 64" width="100%" height="100%">
  <defs>
    <linearGradient id="grad1" x1="0%" y1="0%" x2="100%" y2="100%">
      <stop offset="0%" stop-color="#b86fff"/>
      <stop offset="100%" stop-color="#4d00a3"/>
    </linearGradient>
    <linearGradient id="grad2" x1="0%" y1="0%" x2="100%" y2="100%">
      <stop offset="0%" stop-color="#240047"/>
      <stop offset="100%" stop-color="#0d001a"/>
    </linearGradient>
    <linearGradient id="grad3" x1="0%" y1="0%" x2="100%" y2="100%">
      <stop offset="0%" stop-color="#9933ff"/>
      <stop offset="100%" stop-color="#5a00b3"/>
    </linearGradient>
  </defs>
  <polygon points="32,3 57.1,17.5 57.1,46.5 32,61 6.9,46.5 6.9,17.5" fill="url(#grad1)" stroke="url(#grad1)" stroke-width="4" stroke-linejoin="round"/>
  <polygon points="32,9 51.9,20.5 51.9,43.5 32,55 12.1,43.5 12.1,20.5" fill="url(#grad2)" stroke="#1a0033" stroke-width="2" stroke-linejoin="round"/>
  <polygon points="32,15 46.7,23.5 46.7,40.5 32,49 17.3,40.5 17.3,23.5" fill="url(#grad3)" stroke="#b86fff" stroke-width="1.5" stroke-linejoin="round"/>
  <path d="M 32 23 A 4.5 4.5 0 0 0 28.1 30 L 27 39 A 1 1 0 0 0 28 40 L 36 40 A 1 1 0 0 0 37 39 L 35.9 30 A 4.5 4.5 0 0 0 32 23 Z" fill="#0d001a"/>
</svg>
